# xmcd CD database file
#
# Track frame offsets:
#	182
#	14897
#	30867
#	46375
#	60517
#	77707
#	93742
#	111027
#	126907
#	144620
#	160387
#	176537
#	189937
#	205202
#	220215
#
# Disc length: 3171 seconds
#
# Revision: 9
# Processed by: cddbd v1.5.2PL0 Copyright (c) Steve Scherf et al.
# Submitted via: CDex 1.70beta2
#
DISCID=d10c610f
DTITLE=Various Artist - Salsa Cubana - The Gold Collection  CD1
DYEAR=1998
DGENRE=Jazz
TTITLE0=Irakere - Taka Taka
TTITLE1=Los Van Van - Que Pista
TTITLE2=Benny More - Locas Por El Mambo
TTITLE3=Orquesta Aragon - Caserita Villarena
TTITLE4=Reve Y Su Charango - Rumberos Latino-Americanos
TTITLE5=Ng La Banda - La Expresiva
TTITLE6=Adalberto Alvarez Y Su Son - El Regresso De Maria
TTITLE7=Celina Gonzalez - Santa Barbara
TTITLE8=Irakere - El Coco
TTITLE9=Los Van Van - Que Palo Es Esse
TTITLE10=Malena Burke and Ng La Banda - Me Voy Pa' El Pueblo
TTITLE11=Benny More - Cinturita
TTITLE12=Original De Manzanillo - Acabo De Llegar
TTITLE13=Ng La Banda - La Protesta De Los Chivos
TTITLE14=Celina Gonzalez - El Refran Se Te Olvido
EXTD=YEAR: 1998
EXTT0=
EXTT1=
EXTT2=
EXTT3=
EXTT4=
EXTT5=
EXTT6=
EXTT7=
EXTT8=
EXTT9=
EXTT10=
EXTT11=
EXTT12=
EXTT13=
EXTT14=
PLAYORDER=
